<?xml version="1.0" encoding="utf-8"?>
<svg version="1.1" xmlns:xlink="http://www.w3.org/1999/xlink" width="16px" height="16px" viewBox="40 189  16 16" xmlns="http://www.w3.org/2000/svg">
  <path d="M 48 189  C 52.48 189  56 192.52  56 197  C 56 201.48  52.48 205  48 205  C 43.52 205  40 201.48  40 197  C 40 192.52  43.52 189  48 189  Z " fill-rule="nonzero" fill="#ffffff" stroke="none" />
  <path d="M 48 189.5  C 52.2 189.5  55.5 192.8  55.5 197  C 55.5 201.2  52.2 204.5  48 204.5  C 43.8 204.5  40.5 201.2  40.5 197  C 40.5 192.8  43.8 189.5  48 189.5  Z " stroke-width="1" stroke="#797979" fill="none" />
  <path d="M 48 201  C 45.76 201  44 199.24  44 197  C 44 194.76  45.76 193  48 193  C 50.24 193  52 194.76  52 197  C 52 199.24  50.24 201  48 201  " fill-rule="nonzero" fill="#797979" stroke="none" />
</svg>