<?xml version="1.0" encoding="utf-8"?>
<svg version="1.1" xmlns:xlink="http://www.w3.org/1999/xlink" width="12px" height="12px" viewBox="190 332  12 12" xmlns="http://www.w3.org/2000/svg">
  <path d="M 196 332  C 199.36 332  202 334.64  202 338  C 202 341.36  199.36 344  196 344  C 192.64 344  190 341.36  190 338  C 190 334.64  192.64 332  196 332  Z " fill-rule="nonzero" fill="#ffffff" stroke="none" />
  <path d="M 196 332.5  C 199.08 332.5  201.5 334.92  201.5 338  C 201.5 341.08  199.08 343.5  196 343.5  C 192.92 343.5  190.5 341.08  190.5 338  C 190.5 334.92  192.92 332.5  196 332.5  Z " stroke-width="1" stroke="#797979" fill="none" />
  <path d="M 196 341  C 194.32 341  193 339.68  193 338  C 193 336.32  194.32 335  196 335  C 197.68 335  199 336.32  199 338  C 199 339.68  197.68 341  196 341  " fill-rule="nonzero" fill="#797979" stroke="none" />
</svg>