<?xml version="1.0" encoding="utf-8"?>
<svg version="1.1" xmlns:xlink="http://www.w3.org/1999/xlink" width="110px" height="37px" xmlns="http://www.w3.org/2000/svg">
  <defs>
    <mask fill="white" id="clip86">
      <path d="M 0 27  L 0 0  L 100 0  L 100 27  L 67 27  L 0 27  Z " fill-rule="evenodd" />
    </mask>
    <filter x="820px" y="287px" width="110px" height="37px" filterUnits="userSpaceOnUse" id="filter87">
      <feOffset dx="5" dy="5" in="SourceAlpha" result="shadowOffsetInner" />
      <feGaussianBlur stdDeviation="2.5" in="shadowOffsetInner" result="shadowGaussian" />
      <feComposite in2="shadowGaussian" operator="atop" in="SourceAlpha" result="shadowComposite" />
      <feColorMatrix type="matrix" values="0 0 0 0 0  0 0 0 0 0  0 0 0 0 0  0 0 0 0.349019607843137 0  " in="shadowComposite" />
    </filter>
    <g id="widget88">
      <path d="M 0 27  L 0 0  L 100 0  L 100 27  L 67 27  L 0 27  Z " fill-rule="nonzero" fill="#000000" stroke="none" transform="matrix(1 0 0 1 820 287 )" />
      <path d="M 0 27  L 0 0  L 100 0  L 100 27  L 67 27  L 0 27  Z " stroke-width="2" stroke="#81d3f8" fill="none" transform="matrix(1 0 0 1 820 287 )" mask="url(#clip86)" />
    </g>
  </defs>
  <g transform="matrix(1 0 0 1 -820 -287 )">
    <use xlink:href="#widget88" filter="url(#filter87)" />
    <use xlink:href="#widget88" />
  </g>
</svg>